<svg id="Layer_1" data-name="Layer 1" xmlns="http://www.w3.org/2000/svg" viewBox="0 0 441.12 695.41">
  <defs>
    <style>
      .cls-1 {
        fill: #c4c4c4;
      }
    </style>
  </defs>
  <title>palm tree</title>
  <path class="cls-1" d="M265.14,698.61c43.17-80.46,64.46-168.39,88.57-255.5,12.92-46.65,20-93.9,22.59-141.9,1-18.49-1.64-37.17-2.64-55.76-.59-10.92-1.22-21.83-.19-33.16C394.86,226.34,397,259,399.66,282L409,265.64a152.78,152.78,0,0,1,11.16,51A162.07,162.07,0,0,0,430,297.84c4.17,22.23,8.35,45,4.64,67.32A35.13,35.13,0,0,0,444.76,342c-.17,4.45,2.59,9.68,3.07,14.33,1.05,10.13,3,22.68-.92,32.82s-7.31,26.63-15,34.36a125.6,125.6,0,0,0,45.39-87.71l8.11,20.14A234.76,234.76,0,0,0,487.28,254a29.44,29.44,0,0,1,18.5,5.41c-8.07-19.48-20.66-36.7-35.64-51.43C453.94,192,434.05,180.65,416,167.22c29.06-4.52,60.12,7.22,78.93,29.84a37.31,37.31,0,0,1,1.33-10.93A132.21,132.21,0,0,1,535,245l7.6-14.41A98.77,98.77,0,0,1,568,277.74c5.71-29.47-3.53-59.55-12.66-88.15a54,54,0,0,1,13.34,15.26A160.89,160.89,0,0,0,533.64,134a22.33,22.33,0,0,1,14.71,9.85c-6.49-25.85-27.63-43.68-53-49.71l14.52-5.69c-22.27-5.1-45.5-1.43-68,2.26-16.71,2.73-34.21,5.81-47.47,16.33C402.71,84,426.24,62.83,451.8,63.94a77.9,77.9,0,0,0-26.23-4.06,140.08,140.08,0,0,1,55.07-10A64.26,64.26,0,0,0,455,42.68a107.71,107.71,0,0,1,52.69,4c-3.35-1.12-8.53-9.31-11.39-11.89a105.21,105.21,0,0,0-14.42-11,83.8,83.8,0,0,0-31.08-11.58l12.7-5.91C441.06-.48,415.78,4.17,396.3,17.21,371.23,34,362.1,60.18,351.78,87c-4.8-6.84-8.45-10.82-10.71-15.48-19.76-40.81-63.58-59.54-107.72-54.83A27,27,0,0,1,251.91,28c-22.48-1.51-45.08,3.87-65.57,13.22s-39,22.56-56.23,37.11c28-7.27,56.51-14.59,85.48-14.11a64.68,64.68,0,0,0-30.26,17.22c2.3-2.33,15.48-1.11,18.84-1.19q10.17-.22,20.33.42c11.85.75,23.37,2.9,35,4.84,22.55,3.75,43.1,13.65,58.81,30.47l-.93,3.2c-9.86-3.39-19.67-6.91-29.58-10.15-42.26-13.8-89.74-4.5-130.19,11.33l22.71-.44c-25.88,12-40.91,39.14-51.71,65.52A168.57,168.57,0,0,1,173,155.09c-7.93,3.73-11.74,17-13.23,24.65-2.78,14.37-5.21,27.73-3.44,42.47A14.47,14.47,0,0,1,161.92,210c-2.72,26.24,7.26,52,17,76.45a144.42,144.42,0,0,1,35.76-90.93,70.42,70.42,0,0,1-1.61,15.92c21.39-22,44.12-44.88,73.53-53.66a417.59,417.59,0,0,0-32.94,29.7c-14.71,14.76-27.39,34.76-33.62,54.8a20.53,20.53,0,0,1,10.86-7.35c-8,2.18-6,41.41-5.69,48.36a187.45,187.45,0,0,0,10.57,54.5q2.3-7.54,4.6-15.1a64.06,64.06,0,0,0,8.27,18.61c4.52,6.62,9.2,12.39,16.28,16.28-2.6-1.43-4.55-13.27-5.31-16.17a118.54,118.54,0,0,1-3.19-17c-1-9-2-21.06,1.48-29.7a40.19,40.19,0,0,0,8.66,24.84c.76-12.78,1.53-25.66,4.7-38.06s8.94-24.46,18.33-33.15a41.94,41.94,0,0,0-4.73,21.87,287.67,287.67,0,0,1,24.12-39c6.81-9.25,16.6-25.67,26.54-31.16,1.4,2.92,3,6.3,3.24,9.59,7.1,85.41-1.15,168.7-32.91,249.1-19.57,49.52-43.59,96.79-67.88,144.07-17.81,34.67-38.67,65.09-62.47,95.88Z" transform="translate(-128.65 -3.2)"/>
</svg>
